<?xml version="1.0" encoding="UTF-8"?>
<svg width="323.574343px" height="358px" viewBox="0 0 323.574343 358" version="1.1" xmlns="http://www.w3.org/2000/svg" xmlns:xlink="http://www.w3.org/1999/xlink">
    <title>Group</title>
    <g id="Page-1" stroke="none" stroke-width="1" fill="none" fill-rule="evenodd">
        <g id="Artboard" transform="translate(-85.3612, -52)">
            <g id="Group" transform="translate(91, 61)">
                <circle id="Oval-Copy" stroke="#000000" stroke-width="20" cx="69.5" cy="288.5" r="50.5"></circle>
                <polygon id="Star" stroke="#000000" stroke-width="18" stroke-linejoin="round" points="69 96.7020067 28.4428176 124.822173 42.653826 77.5603909 3.37710038 47.6778274 52.717169 46.5886058 69 0 85.282831 46.5886058 134.6229 47.6778274 95.346174 77.5603909 109.557182 124.822173"></polygon>
                <g id="?" transform="translate(224.5859, 40.5762)" fill="#000000" fill-rule="nonzero">
                    <path d="M28.8964844,93.9941406 C28.8964844,100.869141 33.1933594,106.025391 41.0351562,106.025391 C48.5546875,106.025391 51.3476562,101.728516 54.0332031,95.390625 C56.5039062,86.3671875 60.0488281,82.6074219 70.46875,74.6582031 C84.21875,64.453125 93.3496094,55.3222656 93.3496094,38.671875 C93.3496094,14.7167969 73.6914062,0 45.4394531,0 C30.1855469,0 18.4765625,3.97460938 10.6347656,10.6347656 C4.18945312,16.328125 0,23.8476562 0,30.9375 C0,36.8457031 3.75976563,41.6796875 10.5273438,41.6796875 C15.0390625,41.6796875 17.6171875,39.6386719 20.9472656,35.234375 C26.1035156,26.4257812 33.1933594,22.4511719 43.5058594,22.4511719 C55.3222656,22.4511719 64.6679688,29.4335938 64.6679688,39.9609375 C64.6679688,49.4140625 58.8671875,54.5703125 48.4472656,62.734375 C33.9453125,74.1210938 28.8964844,81.3183594 28.8964844,93.9941406 Z M24.8144531,136.425781 C24.8144531,145.341797 32.1191406,151.572266 41.0351562,151.572266 C49.9511719,151.572266 57.3632812,145.341797 57.3632812,136.425781 C57.3632812,127.509766 49.9511719,121.279297 41.0351562,121.279297 C32.1191406,121.279297 24.8144531,127.509766 24.8144531,136.425781 Z" id="Shape"></path>
                </g>
                <line x1="69.5" y1="138.5" x2="69.5" y2="214.5" id="Line" stroke="#000000" stroke-width="13" stroke-linecap="round" stroke-linejoin="round"></line>
                <path d="M69,214.148438 C69.5,199.001953 71.8592619,168.601563 125.757308,168.601563 C179.655354,168.601563 193.447948,168.601563 210.640171,168.601563 C222.101652,168.601563 229.932741,163.776841 234.133438,154.127398" id="Path-2" stroke="#000000" stroke-width="13" stroke-linecap="round" stroke-linejoin="round"></path>
            </g>
        </g>
    </g>
</svg>